<svg width="18" height="18" viewBox="0 0 18 18" fill="none" xmlns="http://www.w3.org/2000/svg">
<path fill-rule="evenodd" clip-rule="evenodd" d="M8.96008 17.36C11.1667 17.36 13.2829 16.4834 14.8432 14.9231C16.4035 13.3628 17.2801 11.2466 17.2801 9.04C17.2801 6.8334 16.4035 4.71718 14.8432 3.15687C13.2829 1.59657 11.1667 0.720001 8.96008 0.720001C6.75347 0.720001 4.63725 1.59657 3.07695 3.15687C1.51664 4.71718 0.640076 6.8334 0.640076 9.04C0.640076 11.2466 1.51664 13.3628 3.07695 14.9231C4.63725 16.4834 6.75347 17.36 8.96008 17.36ZM10.0001 5.92C10.0001 5.64418 9.8905 5.37965 9.69547 5.18461C9.50043 4.98957 9.2359 4.88 8.96008 4.88C8.68425 4.88 8.41972 4.98957 8.22468 5.18461C8.02965 5.37965 7.92008 5.64418 7.92008 5.92V8H5.84008C5.56425 8 5.29972 8.10957 5.10468 8.30461C4.90965 8.49965 4.80008 8.76418 4.80008 9.04C4.80008 9.31583 4.90965 9.58035 5.10468 9.77539C5.29972 9.97043 5.56425 10.08 5.84008 10.08H7.92008V12.16C7.92008 12.4358 8.02965 12.7004 8.22468 12.8954C8.41972 13.0904 8.68425 13.2 8.96008 13.2C9.2359 13.2 9.50043 13.0904 9.69547 12.8954C9.8905 12.7004 10.0001 12.4358 10.0001 12.16V10.08H12.0801C12.3559 10.08 12.6204 9.97043 12.8155 9.77539C13.0105 9.58035 13.1201 9.31583 13.1201 9.04C13.1201 8.76418 13.0105 8.49965 12.8155 8.30461C12.6204 8.10957 12.3559 8 12.0801 8H10.0001V5.92Z" fill="#4FD8E0"/>
</svg>
